<?xml version="1.0" standalone="no"?>
<!DOCTYPE svg PUBLIC "-//W3C//DTD SVG 20010904//EN"
 "http://www.w3.org/TR/2001/REC-SVG-20010904/DTD/svg10.dtd">
<svg version="1.0" xmlns="http://www.w3.org/2000/svg"
 width="401.000000pt" height="34.000000pt" viewBox="0 0 401.000000 34.000000"
 preserveAspectRatio="xMidYMid meet">

<g transform="translate(0.000000,34.000000) scale(0.100000,-0.100000)"
fill="#000D60" stroke="none">
<path d="M54 258 c3 -13 6 -67 6 -120 0 -90 2 -98 19 -98 16 0 20 8 23 43 4
62 34 63 98 3 40 -38 56 -46 86 -46 l37 0 -39 35 c-21 19 -42 34 -46 35 -18 1
-6 20 11 20 45 0 51 10 51 75 0 48 -4 64 -16 69 -9 3 -65 6 -126 6 -110 0
-110 0 -104 -22z m201 -53 l0 -30 -75 0 -75 0 -3 33 -3 33 78 -3 78 -3 0 -30z"/>
<path d="M422 272 c-9 -6 -12 -31 -10 -88 l3 -79 105 0 105 0 0 85 0 85 -95 3
c-52 1 -101 -2 -108 -6z m173 -82 l0 -55 -72 -3 -73 -3 0 61 0 61 73 -3 72 -3
0 -55z"/>
<path d="M700 272 c0 -4 20 -28 45 -52 38 -37 45 -50 45 -82 0 -27 4 -38 15
-38 11 0 15 11 15 38 0 32 7 45 45 82 25 24 45 48 45 52 0 20 -37 5 -71 -27
l-36 -36 -27 36 c-18 23 -35 35 -52 35 -13 0 -24 -4 -24 -8z"/>
<path d="M991 193 c-41 -73 -47 -89 -33 -92 9 -2 23 6 30 18 12 17 24 21 73
21 48 0 60 -4 69 -20 9 -17 50 -30 50 -16 0 2 -23 43 -51 90 -34 59 -56 86
-69 86 -13 0 -34 -27 -69 -87z m92 12 l17 -35 -41 0 c-22 0 -39 3 -37 8 37 75
38 75 61 27z"/>
<path d="M1250 191 l0 -91 90 0 c72 0 90 3 90 15 0 11 -16 15 -67 17 l-68 3 0
70 c0 65 -2 70 -22 73 -22 3 -23 1 -23 -87z"/>
<path d="M1440 265 c0 -11 11 -15 40 -15 l40 0 0 -75 c0 -68 2 -75 20 -75 18
0 20 7 20 75 l0 75 45 0 c33 0 45 4 45 15 0 12 -18 15 -105 15 -87 0 -105 -3
-105 -15z"/>
<path d="M1743 232 c41 -42 47 -53 47 -90 0 -35 3 -42 20 -42 16 0 20 7 20 38
0 30 8 45 45 82 24 25 44 48 45 53 1 19 -38 3 -71 -29 l-37 -36 -28 36 c-22
27 -37 36 -59 36 l-29 0 47 -48z"/>
<path d="M2181 160 c1 -120 1 -120 25 -120 22 0 24 4 24 45 l0 45 81 0 c110 0
119 6 119 79 0 44 -4 60 -16 65 -9 3 -65 6 -125 6 l-110 0 2 -120z m203 64 c4
-9 4 -25 1 -35 -6 -16 -17 -19 -81 -19 l-74 0 0 35 0 35 74 0 c59 0 75 -3 80
-16z"/>
<path d="M2500 190 c0 -83 1 -90 20 -90 17 0 20 7 20 40 l0 40 65 0 c68 0 69
0 65 -52 -1 -22 3 -28 19 -28 20 0 21 6 21 91 0 81 -2 90 -17 87 -12 -2 -18
-13 -18 -33 -1 -30 -1 -30 -68 -33 l-67 -3 0 36 c0 28 -4 35 -20 35 -19 0 -20
-7 -20 -90z"/>
<path d="M2843 190 c-44 -77 -49 -90 -32 -90 10 0 24 9 31 20 10 16 24 20 70
20 47 0 59 -4 68 -20 10 -18 50 -29 50 -14 0 4 -21 44 -47 90 -64 111 -73 110
-140 -6z m92 20 c20 -39 20 -40 -20 -40 -38 0 -41 6 -23 45 15 33 24 32 43 -5z"/>
<path d="M3110 190 c0 -83 1 -90 20 -90 16 0 20 7 20 35 0 25 4 35 16 35 9 0
34 -16 57 -35 24 -21 51 -35 66 -35 l26 1 -32 28 c-39 33 -40 39 -10 43 19 3
22 9 22 53 l0 50 -92 3 -93 3 0 -91z m158 36 c5 -26 -15 -36 -70 -36 -47 0
-48 1 -48 30 l0 31 57 -3 c47 -2 58 -6 61 -22z"/>
<path d="M3400 190 c0 -73 3 -90 15 -90 12 0 15 13 15 55 0 30 3 55 8 55 4 0
23 -21 42 -46 l34 -46 21 24 c11 13 30 37 42 53 l22 30 1 -62 c0 -56 2 -63 20
-63 19 0 20 7 20 90 0 81 -2 90 -19 90 -10 0 -30 -17 -45 -39 -54 -78 -57 -78
-102 -16 -21 30 -47 55 -56 55 -16 0 -18 -11 -18 -90z"/>
<path d="M3806 258 c-27 -44 -86 -149 -86 -154 0 -13 37 -1 48 16 18 30 128
30 137 0 4 -13 15 -20 32 -20 24 0 24 1 11 23 -8 12 -32 52 -53 90 -42 72 -64
83 -89 45z m47 -35 c2 -10 8 -26 12 -35 6 -15 2 -18 -29 -18 -41 0 -41 1 -21
40 18 34 30 38 38 13z"/>
</g>
</svg>
